<?xml version="1.0" standalone="no"?>
<!DOCTYPE svg PUBLIC "-//W3C//DTD SVG 20010904//EN"
 "http://www.w3.org/TR/2001/REC-SVG-20010904/DTD/svg10.dtd">
<svg version="1.0" xmlns="http://www.w3.org/2000/svg"
 width="512.000000pt" height="512.000000pt" viewBox="0 0 512.000000 512.000000"
 preserveAspectRatio="xMidYMid meet">
<metadata>
Created by potrace 1.14, written by Peter Selinger 2001-2017
</metadata>
<g transform="translate(0.000000,512.000000) scale(0.100000,-0.100000)"
fill="#000000" stroke="none">
<path d="M0 2560 l0 -2560 2560 0 2560 0 0 2560 0 2560 -2560 0 -2560 0 0
-2560z m2605 2384 c20 -9 40 -30 50 -50 49 -104 -84 -196 -166 -115 -41 41
-41 106 -1 143 44 41 67 46 117 22z m189 -504 c111 -10 203 -23 210 -30 24
-25 -25 -36 -236 -54 -201 -17 -223 -17 -398 -2 -246 22 -250 23 -250 46 0 11
3 20 8 21 4 0 90 8 192 18 239 24 240 24 474 1z m191 -505 c213 -19 391 -37
396 -40 17 -11 9 -35 -13 -40 -13 -2 -198 -20 -413 -39 l-390 -35 -395 35
c-217 19 -405 37 -417 40 -25 5 -31 32 -9 40 18 7 725 71 798 73 32 0 231 -15
443 -34z m213 -510 c337 -30 617 -57 623 -60 17 -11 9 -35 -13 -40 -13 -2
-300 -29 -638 -59 l-615 -54 -627 57 c-345 31 -630 60 -634 63 -13 13 5 38 28
39 13 0 282 24 598 53 316 30 595 54 620 55 25 0 321 -24 658 -54z m167 -511
c756 -66 804 -73 792 -107 -2 -7 -14 -17 -28 -23 -13 -6 -370 -42 -794 -80
l-769 -68 -776 68 c-449 39 -786 72 -800 80 -14 6 -25 18 -25 26 0 8 11 20 25
27 26 14 1539 152 1595 146 17 -2 368 -33 780 -69z m95 -550 c517 -46 878 -82
898 -90 27 -11 32 -18 32 -47 0 -27 -5 -36 -26 -46 -15 -6 -425 -47 -913 -91
l-886 -79 -890 79 c-489 44 -902 85 -918 91 -24 10 -28 17 -25 48 3 32 7 37
43 49 38 12 1636 158 1760 161 33 1 449 -33 925 -75z m-35 -519 c462 -41 857
-77 877 -81 48 -7 88 -52 88 -99 0 -36 -37 -90 -68 -99 -9 -3 -354 -35 -767
-72 -412 -36 -754 -70 -759 -74 -33 -31 0 -36 705 -93 759 -63 734 -59 769
-119 19 -35 4 -94 -32 -121 -20 -15 -162 -45 -602 -128 -317 -59 -580 -111
-586 -114 -5 -3 -10 -12 -10 -20 0 -17 5 -18 429 -55 189 -17 352 -35 362 -41
12 -6 19 -21 19 -39 0 -74 -329 -295 -593 -397 -420 -162 -950 -165 -1375 -7
-202 75 -440 216 -572 338 -48 44 -55 90 -17 106 12 6 190 25 395 43 362 33
412 41 385 68 -5 5 -262 57 -569 115 -307 57 -570 107 -583 110 -38 8 -81 58
-81 94 0 44 24 85 57 98 15 6 336 37 713 67 377 31 693 58 703 61 20 6 23 33
5 39 -7 2 -346 34 -753 70 -407 36 -751 67 -763 70 -41 10 -72 53 -72 100 0
33 6 47 30 70 l30 28 852 78 c469 42 873 77 898 78 25 0 423 -33 885 -74z"/>
</g>
</svg>
